<?xml version="1.0" standalone="no"?>
<!DOCTYPE svg PUBLIC "-//W3C//DTD SVG 20010904//EN"
 "http://www.w3.org/TR/2001/REC-SVG-20010904/DTD/svg10.dtd">
<svg version="1.0" xmlns="http://www.w3.org/2000/svg"
 width="512.000000pt" height="512.000000pt" viewBox="0 0 512.000000 512.000000"
 preserveAspectRatio="xMidYMid meet">

<g transform="translate(0.000000,512.000000) scale(0.100000,-0.100000)"
fill="#000000" stroke="none">
<path d="M2321 5110 c-1340 -130 -2361 -1283 -2318 -2620 13 -389 97 -726 268
-1069 249 -502 647 -900 1150 -1150 815 -406 1779 -350 2539 147 297 194 579
482 771 788 74 116 184 342 234 478 51 138 110 376 131 531 23 157 26 521 6
660 -59 415 -191 769 -410 1099 -92 140 -185 254 -315 385 -399 403 -895 653
-1462 737 -122 18 -466 26 -594 14z m850 -1289 c23 -18 24 -25 27 -173 4 -172
-5 -225 -41 -232 -12 -3 -82 -7 -156 -10 -156 -6 -205 -23 -243 -84 -22 -35
-23 -49 -26 -239 l-3 -203 211 0 c125 0 219 -4 230 -10 40 -22 42 -42 20 -228
-24 -210 -26 -216 -46 -236 -13 -14 -47 -16 -215 -16 l-199 0 0 -537 c0 -485
-2 -538 -17 -555 -15 -16 -35 -18 -223 -18 -147 0 -209 3 -218 12 -9 9 -12
146 -12 555 l0 543 -159 0 c-154 0 -160 1 -175 22 -13 19 -16 57 -16 221 0
197 0 198 25 222 23 24 28 25 174 25 l149 0 4 253 c4 229 6 259 27 322 49 150
138 258 265 320 102 51 180 63 402 64 175 1 194 -1 215 -18z"/>
</g>
</svg>
