<?xml version="1.0" standalone="no"?>
<!DOCTYPE svg PUBLIC "-//W3C//DTD SVG 20010904//EN"
 "http://www.w3.org/TR/2001/REC-SVG-20010904/DTD/svg10.dtd">
<svg version="1.0" xmlns="http://www.w3.org/2000/svg"
 width="512.000000pt" height="512.000000pt" viewBox="0 0 512.000000 512.000000"
 preserveAspectRatio="xMidYMid meet">

<g transform="translate(0.000000,512.000000) scale(0.100000,-0.100000)"
fill="#000000" stroke="none">
<path d="M2362 4999 c-820 -59 -1562 -535 -1977 -1269 -310 -547 -391 -1219
-224 -1850 84 -318 255 -652 469 -916 383 -473 962 -800 1573 -889 748 -109
1515 140 2066 670 409 394 662 896 742 1475 20 144 17 507 -5 655 -81 536
-321 1019 -696 1396 -207 208 -416 359 -675 484 -300 146 -573 219 -915 245
-149 11 -192 11 -358 -1z m-470 -989 c9 -36 36 -141 59 -233 23 -92 45 -164
49 -160 4 4 32 110 61 235 l54 228 93 0 c53 0 92 -4 92 -10 0 -5 -33 -116 -74
-247 -149 -476 -136 -412 -136 -685 l0 -239 -92 3 -93 3 -5 255 -5 255 -103
326 c-56 179 -102 329 -102 333 0 4 42 5 92 4 l93 -3 17 -65z m768 -244 c33
-16 54 -36 78 -76 l32 -54 0 -293 c0 -242 -3 -300 -15 -331 -33 -77 -98 -119
-199 -129 -110 -10 -190 32 -232 121 -23 50 -24 57 -24 341 0 282 1 292 23
335 54 108 212 148 337 86z m418 -340 c1 -237 6 -354 13 -363 18 -21 46 -15
84 18 l35 31 2 331 3 332 80 0 80 0 3 -438 2 -438 -82 3 -83 3 -3 43 -3 43
-45 -40 c-54 -48 -102 -65 -157 -58 -49 7 -76 32 -87 83 -11 46 -13 787 -3
798 4 4 41 5 83 4 l75 -3 3 -349z m409 -675 c93 -7 121 -13 175 -39 72 -35 78
-40 136 -106 61 -70 80 -141 93 -350 13 -191 6 -804 -11 -924 -13 -98 -51
-171 -122 -237 -82 -76 -138 -95 -318 -105 -482 -29 -1824 -18 -1939 16 -68
20 -168 89 -205 142 -76 108 -90 215 -89 727 0 550 14 643 117 753 51 55 145
106 216 117 140 23 1670 28 1947 6z"/>
<path d="M2486 3624 c-14 -14 -16 -51 -14 -292 l3 -277 28 -13 c30 -14 58 -9
82 14 13 13 15 58 15 283 0 247 -1 269 -18 284 -23 21 -76 22 -96 1z"/>
<path d="M1420 2375 l0 -85 95 0 95 0 0 -505 0 -506 88 3 87 3 3 503 2 502 95
0 95 0 0 85 0 85 -280 0 -280 0 0 -85z"/>
<path d="M2610 1870 l0 -590 80 0 80 0 0 30 c0 33 11 38 31 14 24 -29 68 -44
128 -44 49 0 65 4 90 25 52 45 56 71 56 400 0 223 -3 312 -14 347 -33 115
-154 147 -252 68 l-39 -31 0 186 0 185 -80 0 -80 0 0 -590z m271 141 c24 -19
24 -19 27 -283 2 -200 -1 -269 -11 -288 -17 -34 -64 -38 -100 -10 l-27 21 0
274 0 274 28 15 c37 20 55 20 83 -3z"/>
<path d="M3335 2152 c-42 -20 -83 -62 -113 -116 -15 -26 -17 -68 -20 -290 -4
-278 1 -324 43 -388 69 -105 256 -129 352 -45 53 47 75 99 81 194 l5 83 -85 0
-86 0 -4 -75 c-2 -41 -8 -79 -13 -84 -22 -22 -70 -23 -95 -3 -24 19 -25 26
-28 146 l-4 126 157 0 157 0 -4 158 c-3 141 -5 162 -27 205 -37 75 -84 101
-190 105 -68 2 -95 -2 -126 -16z m159 -154 c11 -15 16 -46 16 -95 l0 -73 -70
0 -70 0 0 73 c0 92 15 117 70 117 29 0 43 -6 54 -22z"/>
<path d="M1982 1748 c3 -366 5 -405 21 -429 45 -67 127 -63 224 10 l52 40 3
-42 3 -42 80 0 80 0 3 433 2 432 -85 0 -85 0 0 -329 0 -329 -35 -31 c-41 -35
-79 -40 -95 -12 -6 13 -10 145 -10 360 l0 341 -81 0 -80 0 3 -402z"/>
</g>
</svg>
